<svg version="1" xmlns="http://www.w3.org/2000/svg" width="300" height="300" viewBox="0 0 300.000000 300.000000"><path d="M135.9 45C90.6 52.2 58 80.5 47.4 121.7c-3.5 13.6-4.3 32.2-2 46.1 8.4 50 47.8 84.5 99.2 86.9 14.3.7 28.7-.9 39.4-4.3 16.5-5.2 38.8-21.4 44.4-32.2 7.3-14.2-3.3-30.3-19.8-30.2-5.7.1-11 2.7-18.6 9.3-12.5 10.9-25.7 16.1-40.5 16-15.9-.2-29.6-6.3-40.9-18.3-11.4-12.2-16.6-25.9-16.7-44.1 0-11.6.9-16.6 4.5-26.3C105 101.9 126.6 86.1 149 86c13.7 0 24.4 3.8 35.8 12.6 16.6 12.8 15.8 12.4 23.6 12.4 14.4-.1 22.6-7.4 22.6-20.3 0-7-3.9-13.6-13-21.9-11.9-10.8-27.7-19-43.2-22.4-8.7-1.8-31-2.7-38.9-1.4z"/></svg>
