<svg xmlns="http://www.w3.org/2000/svg" width="256" height="256" style="isolation:isolate"><defs><clipPath id="a"><path d="M0 0h256v256H0z"/></clipPath></defs><g clip-path="url(#a)"><path fill-rule="evenodd" stroke="#000" stroke-linecap="square" stroke-miterlimit="3" stroke-width=".683" d="M137.387 153.429l7.509 17.067c1.024 2.56 1.707 3.755 1.707 6.656 0 5.461-8.534 5.461-13.312 5.461v3.072h54.784v-3.072c-9.558 0-13.654-10.581-16.896-17.92l-41.472-94.378H128L88.576 158.72c-4.096 9.045-9.045 23.04-20.651 23.893v3.072h37.718v-3.072c-8.534-.512-15.019-1.194-15.019-9.386 0-3.243 1.536-6.656 3.243-10.752l3.925-9.046h39.595zm-2.56-6.144h-34.134l17.238-38.741 16.896 38.741z" vector-effect="non-scaling-stroke"/></g></svg>
